<mxfile host="app.diagrams.net" agent="Mozilla/5.0 (Macintosh; Intel Mac OS X 10_15_7) AppleWebKit/605.1.15 (KHTML, like Gecko) Version/17.5 Safari/605.1.15" version="26.0.14">
  <diagram id="R2lEEEUBdFMjLlhIrx00" name="Page-1">
    <mxGraphModel dx="1706" dy="924" grid="0" gridSize="10" guides="1" tooltips="1" connect="1" arrows="1" fold="1" page="1" pageScale="1" pageWidth="1100" pageHeight="850" math="0" shadow="0" extFonts="Permanent Marker^https://fonts.googleapis.com/css?family=Permanent+Marker">
      <root>
        <mxCell id="0" />
        <mxCell id="1" parent="0" />
        <mxCell id="9fFGTDDnQGLnsMgLMW3F-1" value="Artist" style="swimlane;fontStyle=0;childLayout=stackLayout;horizontal=1;startSize=30;fillColor=none;horizontalStack=0;resizeParent=1;resizeParentMax=0;resizeLast=0;collapsible=1;marginBottom=0;html=1;" parent="1" vertex="1">
          <mxGeometry x="27" y="213" width="145" height="110" as="geometry">
            <mxRectangle x="120" y="293" width="70" height="30" as="alternateBounds" />
          </mxGeometry>
        </mxCell>
        <mxCell id="cfvbCOEu3X5dliOrHv4Z-3" value="&lt;div&gt;PK&lt;span style=&quot;background-color: transparent; color: light-dark(rgb(0, 0, 0), rgb(255, 255, 255)); white-space: pre;&quot;&gt;&#x9;&lt;/span&gt;ArtistID&lt;/div&gt;" style="text;strokeColor=none;fillColor=none;align=left;verticalAlign=top;spacingLeft=4;spacingRight=4;overflow=hidden;rotatable=0;points=[[0,0.5],[1,0.5]];portConstraint=eastwest;whiteSpace=wrap;html=1;" parent="9fFGTDDnQGLnsMgLMW3F-1" vertex="1">
          <mxGeometry y="30" width="145" height="20" as="geometry" />
        </mxCell>
        <mxCell id="9fFGTDDnQGLnsMgLMW3F-3" value="&amp;nbsp; &amp;nbsp; &amp;nbsp; &amp;nbsp; Name" style="text;strokeColor=none;fillColor=none;align=left;verticalAlign=top;spacingLeft=4;spacingRight=4;overflow=hidden;rotatable=0;points=[[0,0.5],[1,0.5]];portConstraint=eastwest;whiteSpace=wrap;html=1;" parent="9fFGTDDnQGLnsMgLMW3F-1" vertex="1">
          <mxGeometry y="50" width="145" height="20" as="geometry" />
        </mxCell>
        <mxCell id="9fFGTDDnQGLnsMgLMW3F-4" value="&lt;span style=&quot;white-space: pre;&quot;&gt;&#x9;&lt;/span&gt;BirthDate" style="text;strokeColor=none;fillColor=none;align=left;verticalAlign=top;spacingLeft=4;spacingRight=4;overflow=hidden;rotatable=0;points=[[0,0.5],[1,0.5]];portConstraint=eastwest;whiteSpace=wrap;html=1;" parent="9fFGTDDnQGLnsMgLMW3F-1" vertex="1">
          <mxGeometry y="70" width="145" height="20" as="geometry" />
        </mxCell>
        <mxCell id="y-FraCeCwG22Gd2JxWBl-1" value="&lt;span style=&quot;white-space: pre;&quot;&gt;&#x9;&lt;/span&gt;BirthPlace" style="text;strokeColor=none;fillColor=none;align=left;verticalAlign=top;spacingLeft=4;spacingRight=4;overflow=hidden;rotatable=0;points=[[0,0.5],[1,0.5]];portConstraint=eastwest;whiteSpace=wrap;html=1;" parent="9fFGTDDnQGLnsMgLMW3F-1" vertex="1">
          <mxGeometry y="90" width="145" height="20" as="geometry" />
        </mxCell>
        <mxCell id="9fFGTDDnQGLnsMgLMW3F-5" value="Pieces of art" style="swimlane;fontStyle=0;childLayout=stackLayout;horizontal=1;startSize=26;fillColor=none;horizontalStack=0;resizeParent=1;resizeParentMax=0;resizeLast=0;collapsible=1;marginBottom=0;html=1;" parent="1" vertex="1">
          <mxGeometry x="237" y="363" width="140" height="70" as="geometry" />
        </mxCell>
        <mxCell id="9fFGTDDnQGLnsMgLMW3F-7" value="&lt;div&gt;PK PieceOfArtID&lt;/div&gt;WhenCreated" style="text;strokeColor=none;fillColor=none;align=left;verticalAlign=top;spacingLeft=4;spacingRight=4;overflow=hidden;rotatable=0;points=[[0,0.5],[1,0.5]];portConstraint=eastwest;whiteSpace=wrap;html=1;" parent="9fFGTDDnQGLnsMgLMW3F-5" vertex="1">
          <mxGeometry y="26" width="140" height="44" as="geometry" />
        </mxCell>
        <mxCell id="9fFGTDDnQGLnsMgLMW3F-10" value="Painting" style="swimlane;fontStyle=0;childLayout=stackLayout;horizontal=1;startSize=26;fillColor=none;horizontalStack=0;resizeParent=1;resizeParentMax=0;resizeLast=0;collapsible=1;marginBottom=0;html=1;" parent="1" vertex="1">
          <mxGeometry x="347" y="525" width="140" height="78" as="geometry" />
        </mxCell>
        <mxCell id="9fFGTDDnQGLnsMgLMW3F-11" value="Width" style="text;strokeColor=none;fillColor=none;align=left;verticalAlign=top;spacingLeft=4;spacingRight=4;overflow=hidden;rotatable=0;points=[[0,0.5],[1,0.5]];portConstraint=eastwest;whiteSpace=wrap;html=1;" parent="9fFGTDDnQGLnsMgLMW3F-10" vertex="1">
          <mxGeometry y="26" width="140" height="26" as="geometry" />
        </mxCell>
        <mxCell id="9fFGTDDnQGLnsMgLMW3F-12" value="Length" style="text;strokeColor=none;fillColor=none;align=left;verticalAlign=top;spacingLeft=4;spacingRight=4;overflow=hidden;rotatable=0;points=[[0,0.5],[1,0.5]];portConstraint=eastwest;whiteSpace=wrap;html=1;" parent="9fFGTDDnQGLnsMgLMW3F-10" vertex="1">
          <mxGeometry y="52" width="140" height="26" as="geometry" />
        </mxCell>
        <mxCell id="9fFGTDDnQGLnsMgLMW3F-13" value="Sculpture" style="swimlane;fontStyle=0;childLayout=stackLayout;horizontal=1;startSize=26;fillColor=none;horizontalStack=0;resizeParent=1;resizeParentMax=0;resizeLast=0;collapsible=1;marginBottom=0;html=1;" parent="1" vertex="1">
          <mxGeometry x="102" y="523" width="140" height="104" as="geometry" />
        </mxCell>
        <mxCell id="9fFGTDDnQGLnsMgLMW3F-14" value="Width" style="text;strokeColor=none;fillColor=none;align=left;verticalAlign=top;spacingLeft=4;spacingRight=4;overflow=hidden;rotatable=0;points=[[0,0.5],[1,0.5]];portConstraint=eastwest;whiteSpace=wrap;html=1;" parent="9fFGTDDnQGLnsMgLMW3F-13" vertex="1">
          <mxGeometry y="26" width="140" height="26" as="geometry" />
        </mxCell>
        <mxCell id="9fFGTDDnQGLnsMgLMW3F-16" value="Length" style="text;strokeColor=none;fillColor=none;align=left;verticalAlign=top;spacingLeft=4;spacingRight=4;overflow=hidden;rotatable=0;points=[[0,0.5],[1,0.5]];portConstraint=eastwest;whiteSpace=wrap;html=1;" parent="9fFGTDDnQGLnsMgLMW3F-13" vertex="1">
          <mxGeometry y="52" width="140" height="26" as="geometry" />
        </mxCell>
        <mxCell id="9fFGTDDnQGLnsMgLMW3F-15" value="Height" style="text;strokeColor=none;fillColor=none;align=left;verticalAlign=top;spacingLeft=4;spacingRight=4;overflow=hidden;rotatable=0;points=[[0,0.5],[1,0.5]];portConstraint=eastwest;whiteSpace=wrap;html=1;" parent="9fFGTDDnQGLnsMgLMW3F-13" vertex="1">
          <mxGeometry y="78" width="140" height="26" as="geometry" />
        </mxCell>
        <mxCell id="9fFGTDDnQGLnsMgLMW3F-20" value="Collection" style="swimlane;fontStyle=0;childLayout=stackLayout;horizontal=1;startSize=26;fillColor=none;horizontalStack=0;resizeParent=1;resizeParentMax=0;resizeLast=0;collapsible=1;marginBottom=0;html=1;" parent="1" vertex="1">
          <mxGeometry x="607" y="393" width="140" height="86" as="geometry" />
        </mxCell>
        <mxCell id="y-FraCeCwG22Gd2JxWBl-8" value="PK CollectionID" style="text;html=1;align=center;verticalAlign=middle;resizable=0;points=[];autosize=1;strokeColor=none;fillColor=none;" parent="9fFGTDDnQGLnsMgLMW3F-20" vertex="1">
          <mxGeometry y="26" width="140" height="30" as="geometry" />
        </mxCell>
        <mxCell id="PeD82HFueCuWmNviaHNF-4" value="&amp;nbsp;CollectionName" style="text;html=1;align=center;verticalAlign=middle;resizable=0;points=[];autosize=1;strokeColor=none;fillColor=none;" parent="9fFGTDDnQGLnsMgLMW3F-20" vertex="1">
          <mxGeometry y="56" width="140" height="30" as="geometry" />
        </mxCell>
        <mxCell id="9fFGTDDnQGLnsMgLMW3F-30" value="Location" style="swimlane;fontStyle=0;childLayout=stackLayout;horizontal=1;startSize=26;fillColor=none;horizontalStack=0;resizeParent=1;resizeParentMax=0;resizeLast=0;collapsible=1;marginBottom=0;html=1;" parent="1" vertex="1">
          <mxGeometry x="607" y="172" width="140" height="136" as="geometry" />
        </mxCell>
        <mxCell id="9fFGTDDnQGLnsMgLMW3F-33" value="PK City" style="text;strokeColor=none;fillColor=none;align=left;verticalAlign=top;spacingLeft=4;spacingRight=4;overflow=hidden;rotatable=0;points=[[0,0.5],[1,0.5]];portConstraint=eastwest;whiteSpace=wrap;html=1;" parent="9fFGTDDnQGLnsMgLMW3F-30" vertex="1">
          <mxGeometry y="26" width="140" height="20" as="geometry" />
        </mxCell>
        <mxCell id="PeD82HFueCuWmNviaHNF-7" value="PK StreetNumber" style="text;strokeColor=none;fillColor=none;align=left;verticalAlign=top;spacingLeft=4;spacingRight=4;overflow=hidden;rotatable=0;points=[[0,0.5],[1,0.5]];portConstraint=eastwest;whiteSpace=wrap;html=1;" parent="9fFGTDDnQGLnsMgLMW3F-30" vertex="1">
          <mxGeometry y="46" width="140" height="20" as="geometry" />
        </mxCell>
        <mxCell id="PeD82HFueCuWmNviaHNF-8" value="PK StreetName" style="text;strokeColor=none;fillColor=none;align=left;verticalAlign=top;spacingLeft=4;spacingRight=4;overflow=hidden;rotatable=0;points=[[0,0.5],[1,0.5]];portConstraint=eastwest;whiteSpace=wrap;html=1;" parent="9fFGTDDnQGLnsMgLMW3F-30" vertex="1">
          <mxGeometry y="66" width="140" height="20" as="geometry" />
        </mxCell>
        <mxCell id="PeD82HFueCuWmNviaHNF-9" value="Day" style="text;strokeColor=none;fillColor=none;align=left;verticalAlign=top;spacingLeft=4;spacingRight=4;overflow=hidden;rotatable=0;points=[[0,0.5],[1,0.5]];portConstraint=eastwest;whiteSpace=wrap;html=1;" parent="9fFGTDDnQGLnsMgLMW3F-30" vertex="1">
          <mxGeometry y="86" width="140" height="20" as="geometry" />
        </mxCell>
        <mxCell id="9fFGTDDnQGLnsMgLMW3F-32" value="Year" style="text;strokeColor=none;fillColor=none;align=left;verticalAlign=top;spacingLeft=4;spacingRight=4;overflow=hidden;rotatable=0;points=[[0,0.5],[1,0.5]];portConstraint=eastwest;whiteSpace=wrap;html=1;" parent="9fFGTDDnQGLnsMgLMW3F-30" vertex="1">
          <mxGeometry y="106" width="140" height="30" as="geometry" />
        </mxCell>
        <mxCell id="9fFGTDDnQGLnsMgLMW3F-37" value="Museum" style="swimlane;fontStyle=0;childLayout=stackLayout;horizontal=1;startSize=26;fillColor=none;horizontalStack=0;resizeParent=1;resizeParentMax=0;resizeLast=0;collapsible=1;marginBottom=0;html=1;" parent="1" vertex="1">
          <mxGeometry x="882" y="273" width="140" height="78" as="geometry" />
        </mxCell>
        <mxCell id="9fFGTDDnQGLnsMgLMW3F-38" value="&lt;span style=&quot;white-space: pre;&quot;&gt;&#x9;&lt;/span&gt;MuseumName" style="text;strokeColor=none;fillColor=none;align=left;verticalAlign=top;spacingLeft=4;spacingRight=4;overflow=hidden;rotatable=0;points=[[0,0.5],[1,0.5]];portConstraint=eastwest;whiteSpace=wrap;html=1;" parent="9fFGTDDnQGLnsMgLMW3F-37" vertex="1">
          <mxGeometry y="26" width="140" height="26" as="geometry" />
        </mxCell>
        <mxCell id="9fFGTDDnQGLnsMgLMW3F-39" value="&lt;span style=&quot;white-space: pre;&quot;&gt;&#x9;&lt;/span&gt;OpeningHours" style="text;strokeColor=none;fillColor=none;align=left;verticalAlign=top;spacingLeft=4;spacingRight=4;overflow=hidden;rotatable=0;points=[[0,0.5],[1,0.5]];portConstraint=eastwest;whiteSpace=wrap;html=1;" parent="9fFGTDDnQGLnsMgLMW3F-37" vertex="1">
          <mxGeometry y="52" width="140" height="26" as="geometry" />
        </mxCell>
        <mxCell id="9fFGTDDnQGLnsMgLMW3F-40" value="Storage" style="swimlane;fontStyle=0;childLayout=stackLayout;horizontal=1;startSize=26;fillColor=none;horizontalStack=0;resizeParent=1;resizeParentMax=0;resizeLast=0;collapsible=1;marginBottom=0;html=1;" parent="1" vertex="1">
          <mxGeometry x="882" y="163" width="140" height="52" as="geometry" />
        </mxCell>
        <mxCell id="9fFGTDDnQGLnsMgLMW3F-41" value="Size" style="text;strokeColor=none;fillColor=none;align=left;verticalAlign=top;spacingLeft=4;spacingRight=4;overflow=hidden;rotatable=0;points=[[0,0.5],[1,0.5]];portConstraint=eastwest;whiteSpace=wrap;html=1;" parent="9fFGTDDnQGLnsMgLMW3F-40" vertex="1">
          <mxGeometry y="26" width="140" height="26" as="geometry" />
        </mxCell>
        <mxCell id="zprmLrWxzYJvfJaZNkJ2-21" value="Associate" style="edgeStyle=entityRelationEdgeStyle;endArrow=ERzeroToMany;startArrow=ERzeroToOne;endFill=1;startFill=0;entryX=1.007;entryY=0.136;entryDx=0;entryDy=0;dashed=1;entryPerimeter=0;exitX=0;exitY=0.25;exitDx=0;exitDy=0;" parent="1" source="9fFGTDDnQGLnsMgLMW3F-37" target="9fFGTDDnQGLnsMgLMW3F-20" edge="1">
          <mxGeometry width="100" height="100" relative="1" as="geometry">
            <mxPoint x="987" y="703" as="sourcePoint" />
            <mxPoint x="887" y="433" as="targetPoint" />
            <Array as="points">
              <mxPoint x="847" y="413" />
            </Array>
          </mxGeometry>
        </mxCell>
        <mxCell id="zprmLrWxzYJvfJaZNkJ2-24" value="Exhibitions" style="swimlane;fontStyle=0;childLayout=stackLayout;horizontal=1;startSize=26;horizontalStack=0;resizeParent=1;resizeParentMax=0;resizeLast=0;collapsible=1;marginBottom=0;align=center;fontSize=14;" parent="1" vertex="1">
          <mxGeometry x="267" y="163" width="160" height="110" as="geometry" />
        </mxCell>
        <mxCell id="cfvbCOEu3X5dliOrHv4Z-1" value=".PK ExhibitionID" style="text;strokeColor=none;fillColor=none;spacingLeft=4;spacingRight=4;overflow=hidden;rotatable=0;points=[[0,0.5],[1,0.5]];portConstraint=eastwest;fontSize=12;" parent="zprmLrWxzYJvfJaZNkJ2-24" vertex="1">
          <mxGeometry y="26" width="160" height="30" as="geometry" />
        </mxCell>
        <mxCell id="zprmLrWxzYJvfJaZNkJ2-26" value="    BeginDate" style="text;strokeColor=none;fillColor=none;spacingLeft=4;spacingRight=4;overflow=hidden;rotatable=0;points=[[0,0.5],[1,0.5]];portConstraint=eastwest;fontSize=12;" parent="zprmLrWxzYJvfJaZNkJ2-24" vertex="1">
          <mxGeometry y="56" width="160" height="24" as="geometry" />
        </mxCell>
        <mxCell id="y-FraCeCwG22Gd2JxWBl-7" value="    EndDate" style="text;strokeColor=none;fillColor=none;spacingLeft=4;spacingRight=4;overflow=hidden;rotatable=0;points=[[0,0.5],[1,0.5]];portConstraint=eastwest;fontSize=12;" parent="zprmLrWxzYJvfJaZNkJ2-24" vertex="1">
          <mxGeometry y="80" width="160" height="30" as="geometry" />
        </mxCell>
        <mxCell id="zprmLrWxzYJvfJaZNkJ2-36" value="" style="endArrow=ERzeroToOne;html=1;rounded=0;strokeColor=default;entryX=0;entryY=0;entryDx=0;entryDy=0;startArrow=ERzeroToMany;startFill=0;endFill=0;exitX=1.026;exitY=0.141;exitDx=0;exitDy=0;dashed=1;exitPerimeter=0;" parent="1" source="zprmLrWxzYJvfJaZNkJ2-24" target="9fFGTDDnQGLnsMgLMW3F-30" edge="1">
          <mxGeometry relative="1" as="geometry">
            <mxPoint x="577" y="223" as="sourcePoint" />
            <mxPoint x="537" y="209" as="targetPoint" />
          </mxGeometry>
        </mxCell>
        <mxCell id="zprmLrWxzYJvfJaZNkJ2-37" value="TakePlace" style="edgeLabel;html=1;align=center;verticalAlign=middle;resizable=0;points=[];" parent="zprmLrWxzYJvfJaZNkJ2-36" vertex="1" connectable="0">
          <mxGeometry x="-0.0435" y="5" relative="1" as="geometry">
            <mxPoint as="offset" />
          </mxGeometry>
        </mxCell>
        <mxCell id="C-vyLk0tnHw3VtMMgP7b-1" value="Creator" style="edgeStyle=entityRelationEdgeStyle;endArrow=ERzeroToMany;startArrow=ERzeroToMany;endFill=1;startFill=0;entryX=0;entryY=0.25;entryDx=0;entryDy=0;exitX=0.998;exitY=0.146;exitDx=0;exitDy=0;dashed=1;exitPerimeter=0;" parent="1" source="9fFGTDDnQGLnsMgLMW3F-1" target="9fFGTDDnQGLnsMgLMW3F-5" edge="1">
          <mxGeometry width="100" height="100" relative="1" as="geometry">
            <mxPoint x="107" y="325.26" as="sourcePoint" />
            <mxPoint x="237.55999999999995" y="388.99800000000005" as="targetPoint" />
            <Array as="points">
              <mxPoint x="217" y="389" />
            </Array>
          </mxGeometry>
        </mxCell>
        <mxCell id="PeD82HFueCuWmNviaHNF-2" value="" style="endArrow=ERzeroToOne;html=1;rounded=0;strokeColor=default;startArrow=ERzeroToMany;startFill=0;endFill=0;entryX=0;entryY=0.25;entryDx=0;entryDy=0;dashed=1;exitX=1;exitY=0.25;exitDx=0;exitDy=0;" parent="1" source="9fFGTDDnQGLnsMgLMW3F-5" target="9fFGTDDnQGLnsMgLMW3F-20" edge="1">
          <mxGeometry relative="1" as="geometry">
            <mxPoint x="377" y="403" as="sourcePoint" />
            <mxPoint x="477" y="403" as="targetPoint" />
            <Array as="points">
              <mxPoint x="427" y="403" />
            </Array>
          </mxGeometry>
        </mxCell>
        <mxCell id="PeD82HFueCuWmNviaHNF-3" value="Contains" style="edgeLabel;html=1;align=center;verticalAlign=middle;resizable=0;points=[];" parent="PeD82HFueCuWmNviaHNF-2" vertex="1" connectable="0">
          <mxGeometry x="-0.1074" y="2" relative="1" as="geometry">
            <mxPoint x="16" as="offset" />
          </mxGeometry>
        </mxCell>
        <mxCell id="PeD82HFueCuWmNviaHNF-11" value="" style="endArrow=ERzeroToOne;html=1;rounded=0;strokeColor=default;startArrow=ERzeroToMany;startFill=0;endFill=0;entryX=-0.005;entryY=0.153;entryDx=0;entryDy=0;entryPerimeter=0;dashed=1;" parent="1" target="9fFGTDDnQGLnsMgLMW3F-30" edge="1">
          <mxGeometry relative="1" as="geometry">
            <mxPoint x="377" y="373" as="sourcePoint" />
            <mxPoint x="607" y="377" as="targetPoint" />
            <Array as="points">
              <mxPoint x="437" y="353" />
            </Array>
          </mxGeometry>
        </mxCell>
        <mxCell id="PeD82HFueCuWmNviaHNF-12" value="In" style="edgeLabel;html=1;align=center;verticalAlign=middle;resizable=0;points=[];" parent="PeD82HFueCuWmNviaHNF-11" vertex="1" connectable="0">
          <mxGeometry x="-0.1074" y="2" relative="1" as="geometry">
            <mxPoint x="16" as="offset" />
          </mxGeometry>
        </mxCell>
        <mxCell id="y-FraCeCwG22Gd2JxWBl-3" value="Day last_move" style="ellipse;whiteSpace=wrap;html=1;fontSize=8;" parent="1" vertex="1">
          <mxGeometry x="490" y="351" width="50" height="30" as="geometry" />
        </mxCell>
        <mxCell id="y-FraCeCwG22Gd2JxWBl-4" style="edgeStyle=orthogonalEdgeStyle;rounded=0;orthogonalLoop=1;jettySize=auto;html=1;endArrow=none;startFill=0;" parent="1" source="y-FraCeCwG22Gd2JxWBl-3" edge="1">
          <mxGeometry relative="1" as="geometry">
            <mxPoint x="477" y="313" as="targetPoint" />
            <Array as="points">
              <mxPoint x="487" y="366" />
              <mxPoint x="487" y="331" />
              <mxPoint x="478" y="331" />
              <mxPoint x="478" y="313" />
            </Array>
          </mxGeometry>
        </mxCell>
        <mxCell id="y-FraCeCwG22Gd2JxWBl-5" value="target location" style="ellipse;whiteSpace=wrap;html=1;" parent="1" vertex="1">
          <mxGeometry x="427" y="283" width="50" height="35" as="geometry" />
        </mxCell>
        <mxCell id="y-FraCeCwG22Gd2JxWBl-6" style="edgeStyle=orthogonalEdgeStyle;rounded=0;orthogonalLoop=1;jettySize=auto;html=1;endArrow=none;startFill=0;" parent="1" edge="1">
          <mxGeometry relative="1" as="geometry">
            <mxPoint x="454" y="308" as="targetPoint" />
            <mxPoint x="457" y="333" as="sourcePoint" />
            <Array as="points">
              <mxPoint x="457" y="323" />
              <mxPoint x="454" y="323" />
            </Array>
          </mxGeometry>
        </mxCell>
        <mxCell id="y-FraCeCwG22Gd2JxWBl-10" value="" style="endArrow=ERzeroToOne;html=1;rounded=0;strokeColor=default;startArrow=ERzeroToMany;startFill=0;endFill=0;exitX=0.5;exitY=0;exitDx=0;exitDy=0;entryX=0.33;entryY=1.08;entryDx=0;entryDy=0;entryPerimeter=0;" parent="1" target="9fFGTDDnQGLnsMgLMW3F-7" edge="1">
          <mxGeometry relative="1" as="geometry">
            <mxPoint x="172" y="522.3000000000002" as="sourcePoint" />
            <mxPoint x="277" y="443" as="targetPoint" />
            <Array as="points">
              <mxPoint x="172" y="503" />
              <mxPoint x="217" y="502.3" />
            </Array>
          </mxGeometry>
        </mxCell>
        <mxCell id="y-FraCeCwG22Gd2JxWBl-11" value="Is" style="edgeLabel;html=1;align=center;verticalAlign=middle;resizable=0;points=[];" parent="y-FraCeCwG22Gd2JxWBl-10" vertex="1" connectable="0">
          <mxGeometry x="-0.1074" y="2" relative="1" as="geometry">
            <mxPoint x="12" as="offset" />
          </mxGeometry>
        </mxCell>
        <mxCell id="y-FraCeCwG22Gd2JxWBl-12" value="" style="endArrow=ERzeroToOne;html=1;rounded=0;strokeColor=default;startArrow=ERzeroToMany;startFill=0;endFill=0;entryX=0.56;entryY=1.068;entryDx=0;entryDy=0;entryPerimeter=0;exitX=0.5;exitY=0;exitDx=0;exitDy=0;" parent="1" source="9fFGTDDnQGLnsMgLMW3F-10" target="9fFGTDDnQGLnsMgLMW3F-7" edge="1">
          <mxGeometry relative="1" as="geometry">
            <mxPoint x="327" y="522" as="sourcePoint" />
            <mxPoint x="454" y="433" as="targetPoint" />
            <Array as="points">
              <mxPoint x="417" y="503" />
              <mxPoint x="372" y="502" />
            </Array>
          </mxGeometry>
        </mxCell>
        <mxCell id="y-FraCeCwG22Gd2JxWBl-13" value="Is" style="edgeLabel;html=1;align=center;verticalAlign=middle;resizable=0;points=[];" parent="y-FraCeCwG22Gd2JxWBl-12" vertex="1" connectable="0">
          <mxGeometry x="-0.1074" y="2" relative="1" as="geometry">
            <mxPoint x="16" as="offset" />
          </mxGeometry>
        </mxCell>
        <mxCell id="y-FraCeCwG22Gd2JxWBl-14" value="" style="endArrow=ERzeroToOne;html=1;rounded=0;strokeColor=default;startArrow=ERzeroToMany;startFill=0;endFill=0;entryX=1;entryY=0;entryDx=0;entryDy=0;exitX=0;exitY=0.158;exitDx=0;exitDy=0;exitPerimeter=0;" parent="1" source="9fFGTDDnQGLnsMgLMW3F-40" target="9fFGTDDnQGLnsMgLMW3F-30" edge="1">
          <mxGeometry relative="1" as="geometry">
            <mxPoint x="887" y="242" as="sourcePoint" />
            <mxPoint x="787" y="153" as="targetPoint" />
            <Array as="points">
              <mxPoint x="847" y="172" />
              <mxPoint x="807" y="173" />
            </Array>
          </mxGeometry>
        </mxCell>
        <mxCell id="y-FraCeCwG22Gd2JxWBl-15" value="Is" style="edgeLabel;html=1;align=center;verticalAlign=middle;resizable=0;points=[];" parent="y-FraCeCwG22Gd2JxWBl-14" vertex="1" connectable="0">
          <mxGeometry x="-0.1074" y="2" relative="1" as="geometry">
            <mxPoint x="-5" y="-3" as="offset" />
          </mxGeometry>
        </mxCell>
        <mxCell id="y-FraCeCwG22Gd2JxWBl-16" value="" style="endArrow=ERzeroToOne;html=1;rounded=0;strokeColor=default;startArrow=ERzeroToMany;startFill=0;endFill=0;entryX=1;entryY=0;entryDx=0;entryDy=0;exitX=0.107;exitY=0;exitDx=0;exitDy=0;exitPerimeter=0;" parent="1" source="9fFGTDDnQGLnsMgLMW3F-37" edge="1">
          <mxGeometry relative="1" as="geometry">
            <mxPoint x="882" y="193" as="sourcePoint" />
            <mxPoint x="747" y="194" as="targetPoint" />
            <Array as="points">
              <mxPoint x="897" y="253" />
              <mxPoint x="837" y="223" />
              <mxPoint x="797" y="203" />
            </Array>
          </mxGeometry>
        </mxCell>
        <mxCell id="y-FraCeCwG22Gd2JxWBl-17" value="Is" style="edgeLabel;html=1;align=center;verticalAlign=middle;resizable=0;points=[];" parent="y-FraCeCwG22Gd2JxWBl-16" vertex="1" connectable="0">
          <mxGeometry x="-0.1074" y="2" relative="1" as="geometry">
            <mxPoint x="-5" y="-3" as="offset" />
          </mxGeometry>
        </mxCell>
        <mxCell id="y-FraCeCwG22Gd2JxWBl-18" value="" style="endArrow=ERzeroToOne;html=1;rounded=0;strokeColor=default;entryX=0.5;entryY=0;entryDx=0;entryDy=0;startArrow=ERzeroToMany;startFill=0;endFill=0;dashed=1;exitX=0.4;exitY=1;exitDx=0;exitDy=0;exitPerimeter=0;" parent="1" source="y-FraCeCwG22Gd2JxWBl-7" edge="1">
          <mxGeometry relative="1" as="geometry">
            <mxPoint x="363.08000000000004" y="275.15999999999997" as="sourcePoint" />
            <mxPoint x="330.91999999999996" y="363" as="targetPoint" />
          </mxGeometry>
        </mxCell>
        <mxCell id="y-FraCeCwG22Gd2JxWBl-19" value="IsPartOf" style="edgeLabel;html=1;align=center;verticalAlign=middle;resizable=0;points=[];" parent="y-FraCeCwG22Gd2JxWBl-18" vertex="1" connectable="0">
          <mxGeometry x="-0.0435" y="5" relative="1" as="geometry">
            <mxPoint as="offset" />
          </mxGeometry>
        </mxCell>
      </root>
    </mxGraphModel>
  </diagram>
</mxfile>
